<?xml version="1.0" encoding="UTF-8" standalone="no"?>
<!DOCTYPE svg PUBLIC "-//W3C//DTD SVG 1.1//EN"
 "http://www.w3.org/Graphics/SVG/1.1/DTD/svg11.dtd">
<!-- Generated by graphviz version 2.43.0 (0)
 -->
<!-- Title: net_utils Pages: 1 -->
<svg width="2667pt" height="437pt"
 viewBox="0.00 0.00 2666.82 437.13" xmlns="http://www.w3.org/2000/svg" xmlns:xlink="http://www.w3.org/1999/xlink">
<g id="graph0" class="graph" transform="scale(1 1) rotate(0) translate(4 433.13)">
<title>net_utils</title>
<polygon fill="white" stroke="transparent" points="-4,4 -4,-433.13 2662.82,-433.13 2662.82,4 -4,4"/>
<g id="clust1" class="cluster">
<title>clusterLegend</title>
<polygon fill="none" stroke="black" points="8,-162.07 8,-421.13 636,-421.13 636,-162.07 8,-162.07"/>
<text text-anchor="middle" x="322" y="-405.93" font-family="Times,serif" font-size="14.00">Legend</text>
</g>
<!-- legendNode0 -->
<g id="node1" class="node">
<title>legendNode0</title>
<polygon fill="none" stroke="black" points="339.03,-354.18 342.36,-354.28 345.65,-354.43 348.89,-354.63 352.08,-354.87 355.19,-355.16 358.22,-355.5 361.14,-355.88 363.96,-356.31 366.66,-356.78 369.23,-357.3 371.66,-357.85 373.95,-358.44 376.08,-359.07 378.05,-359.74 379.86,-360.44 381.5,-361.17 382.96,-361.94 384.25,-362.73 385.36,-363.54 386.29,-364.38 387.05,-365.24 387.63,-366.12 388.03,-367.02 388.26,-367.93 388.32,-368.85 388.22,-369.78 387.96,-370.72 387.54,-371.66 386.97,-372.61 386.26,-373.55 385.42,-374.49 384.44,-375.42 383.35,-376.34 382.13,-377.25 380.81,-378.15 379.39,-379.03 377.88,-379.89 376.28,-380.73 374.6,-381.54 372.85,-382.33 371.04,-383.1 369.16,-383.83 367.24,-384.53 365.27,-385.2 363.25,-385.83 361.2,-386.42 359.12,-386.97 357.01,-387.49 354.88,-387.96 352.73,-388.39 350.56,-388.77 348.38,-389.11 346.18,-389.4 343.98,-389.64 341.77,-389.84 339.55,-389.99 337.33,-390.09 335.11,-390.13 332.89,-390.13 330.67,-390.09 328.45,-389.99 326.23,-389.84 324.02,-389.64 321.82,-389.4 319.62,-389.11 317.44,-388.77 315.27,-388.39 313.12,-387.96 310.99,-387.49 308.88,-386.97 306.8,-386.42 304.75,-385.83 302.73,-385.2 300.76,-384.53 298.84,-383.83 296.96,-383.1 295.15,-382.33 293.4,-381.54 291.72,-380.73 290.12,-379.89 288.61,-379.03 287.19,-378.15 285.87,-377.25 284.65,-376.34 283.56,-375.42 282.58,-374.49 281.74,-373.55 281.03,-372.61 280.46,-371.66 280.04,-370.72 279.78,-369.78 279.68,-368.85 279.74,-367.93 279.97,-367.02 280.37,-366.12 280.95,-365.24 281.71,-364.38 282.64,-363.54 283.75,-362.73 285.04,-361.94 286.5,-361.17 288.14,-360.44 289.95,-359.74 291.92,-359.07 294.05,-358.44 296.34,-357.85 298.77,-357.3 301.34,-356.78 304.04,-356.31 306.86,-355.88 309.78,-355.5 312.81,-355.16 315.92,-354.87 319.11,-354.63 322.35,-354.43 325.64,-354.28 328.97,-354.18 332.32,-354.13 335.68,-354.13 339.03,-354.18"/>
<text text-anchor="middle" x="334" y="-369.03" font-family="Times,serif" font-size="12.00">Executable</text>
</g>
<!-- legendNode1 -->
<g id="node2" class="node">
<title>legendNode1</title>
<polygon fill="none" stroke="black" points="150.09,-283.66 150.09,-298.57 110.79,-309.11 55.21,-309.11 15.91,-298.57 15.91,-283.66 55.21,-273.11 110.79,-273.11 150.09,-283.66"/>
<text text-anchor="middle" x="83" y="-288.01" font-family="Times,serif" font-size="12.00">Static Library</text>
</g>
<!-- legendNode0&#45;&gt;legendNode1 -->
<g id="edge1" class="edge">
<title>legendNode0&#45;&gt;legendNode1</title>
<path fill="none" stroke="black" d="M293.17,-358.63C257.88,-347.78 205.52,-331.59 160,-317.13 151.53,-314.45 142.55,-311.56 133.83,-308.74"/>
<polygon fill="black" stroke="black" points="134.72,-305.35 124.13,-305.59 132.56,-312 134.72,-305.35"/>
</g>
<!-- legendNode2 -->
<g id="node3" class="node">
<title>legendNode2</title>
<polygon fill="none" stroke="black" points="319.1,-283.66 319.1,-298.57 276.28,-309.11 215.72,-309.11 172.9,-298.57 172.9,-283.66 215.72,-273.11 276.28,-273.11 319.1,-283.66"/>
<polygon fill="none" stroke="black" points="323.09,-280.52 323.09,-301.7 276.76,-313.11 215.24,-313.11 168.91,-301.7 168.91,-280.52 215.24,-269.11 276.76,-269.11 323.09,-280.52"/>
<text text-anchor="middle" x="246" y="-288.01" font-family="Times,serif" font-size="12.00">Shared Library</text>
</g>
<!-- legendNode0&#45;&gt;legendNode2 -->
<g id="edge2" class="edge">
<title>legendNode0&#45;&gt;legendNode2</title>
<path fill="none" stroke="black" d="M315.77,-354.76C304.68,-344.8 290.22,-331.82 277.34,-320.25"/>
<polygon fill="black" stroke="black" points="279.35,-317.35 269.57,-313.27 274.67,-322.56 279.35,-317.35"/>
</g>
<!-- legendNode3 -->
<g id="node4" class="node">
<title>legendNode3</title>
<polygon fill="none" stroke="black" points="496.92,-283.66 496.92,-298.57 453.62,-309.11 392.38,-309.11 349.08,-298.57 349.08,-283.66 392.38,-273.11 453.62,-273.11 496.92,-283.66"/>
<polygon fill="none" stroke="black" points="500.92,-280.51 500.92,-301.71 454.1,-313.11 391.9,-313.11 345.08,-301.71 345.08,-280.51 391.9,-269.11 454.1,-269.11 500.92,-280.51"/>
<polygon fill="none" stroke="black" points="504.92,-277.37 504.92,-304.85 454.58,-317.11 391.42,-317.11 341.08,-304.85 341.08,-277.37 391.42,-265.11 454.58,-265.11 504.92,-277.37"/>
<text text-anchor="middle" x="423" y="-288.01" font-family="Times,serif" font-size="12.00">Module Library</text>
</g>
<!-- legendNode0&#45;&gt;legendNode3 -->
<!-- legendNode7 -->
<g id="node8" class="node">
<title>legendNode7</title>
<polygon fill="none" stroke="black" points="627.5,-309.11 522.5,-309.11 522.5,-273.11 627.5,-273.11 627.5,-309.11"/>
<text text-anchor="middle" x="575" y="-288.01" font-family="Times,serif" font-size="12.00">Custom Target</text>
</g>
<!-- legendNode0&#45;&gt;legendNode7 -->
<!-- legendNode4 -->
<g id="node5" class="node">
<title>legendNode4</title>
<polygon fill="none" stroke="black" points="200.14,-193.63 108,-206.07 15.86,-193.63 51.05,-173.51 164.95,-173.51 200.14,-193.63"/>
<text text-anchor="middle" x="108" y="-184.97" font-family="Times,serif" font-size="12.00">Interface Library</text>
</g>
<!-- legendNode1&#45;&gt;legendNode4 -->
<g id="edge4" class="edge">
<title>legendNode1&#45;&gt;legendNode4</title>
<path fill="none" stroke="black" stroke-dasharray="5,2" d="M87.24,-272.97C91.13,-257.25 96.95,-233.72 101.44,-215.58"/>
<polygon fill="black" stroke="black" points="104.9,-216.17 103.9,-205.62 98.11,-214.49 104.9,-216.17"/>
<text text-anchor="middle" x="129.5" y="-235.89" font-family="Times,serif" font-size="14.00">Interface</text>
</g>
<!-- legendNode5 -->
<g id="node6" class="node">
<title>legendNode5</title>
<polygon fill="none" stroke="black" points="367.77,-188.07 330.39,-206.07 255.61,-206.07 218.23,-188.07 255.61,-170.07 330.39,-170.07 367.77,-188.07"/>
<text text-anchor="middle" x="293" y="-184.97" font-family="Times,serif" font-size="12.00">Object Library</text>
</g>
<!-- legendNode2&#45;&gt;legendNode5 -->
<g id="edge5" class="edge">
<title>legendNode2&#45;&gt;legendNode5</title>
<path fill="none" stroke="black" stroke-dasharray="1,5" d="M255.97,-268.68C263.22,-253.09 273.08,-231.89 280.81,-215.28"/>
<polygon fill="black" stroke="black" points="284.03,-216.66 285.07,-206.12 277.68,-213.71 284.03,-216.66"/>
<text text-anchor="middle" x="299" y="-235.89" font-family="Times,serif" font-size="14.00">Private</text>
</g>
<!-- legendNode6 -->
<g id="node7" class="node">
<title>legendNode6</title>
<polygon fill="none" stroke="black" points="554.95,-184.06 538.12,-199.29 470,-206.07 401.88,-199.29 385.05,-184.06 432.2,-171.85 507.8,-171.85 554.95,-184.06"/>
<text text-anchor="middle" x="470" y="-184.97" font-family="Times,serif" font-size="12.00">Unknown Library</text>
</g>
<!-- legendNode3&#45;&gt;legendNode6 -->
<g id="edge6" class="edge">
<title>legendNode3&#45;&gt;legendNode6</title>
<path fill="none" stroke="black" d="M434.74,-264.88C441.83,-249.63 450.85,-230.24 457.99,-214.89"/>
<polygon fill="black" stroke="black" points="461.33,-216.01 462.37,-205.46 454.98,-213.06 461.33,-216.01"/>
</g>
<!-- node0 -->
<g id="node9" class="node">
<title>node0</title>
<polygon fill="none" stroke="black" points="1160.22,-177.28 1160.22,-198.86 1083.94,-214.11 976.06,-214.11 899.78,-198.86 899.78,-177.28 976.06,-162.02 1083.94,-162.02 1160.22,-177.28"/>
<text text-anchor="middle" x="1030" y="-191.47" font-family="Times,serif" font-size="12.00">benchmark</text>
<text text-anchor="middle" x="1030" y="-178.47" font-family="Times,serif" font-size="12.00">(benchmark::benchmark)</text>
</g>
<!-- node1 -->
<g id="node10" class="node">
<title>node1</title>
<polygon fill="none" stroke="black" points="2077.68,-23.56 1984,-36 1890.32,-23.56 1926.1,-3.44 2041.9,-3.44 2077.68,-23.56"/>
<text text-anchor="middle" x="1984" y="-14.9" font-family="Times,serif" font-size="12.00">Threads::Threads</text>
</g>
<!-- node0&#45;&gt;node1 -->
<g id="edge8" class="edge">
<title>node0&#45;&gt;node1</title>
<path fill="none" stroke="black" stroke-dasharray="1,5" d="M1026.11,-161.98C1023.6,-135.62 1024.5,-95 1049,-73 1079.7,-45.44 1649.54,-27.63 1884.25,-21.44"/>
<polygon fill="black" stroke="black" points="1884.59,-24.93 1894.5,-21.17 1884.41,-17.94 1884.59,-24.93"/>
</g>
<!-- node2 -->
<g id="node11" class="node">
<title>node2</title>
<polygon fill="none" stroke="black" points="1112,-95.02 1106.65,-110.25 1085,-117.02 1063.35,-110.25 1058,-95.02 1072.98,-82.81 1097.02,-82.81 1112,-95.02"/>
<text text-anchor="middle" x="1085" y="-95.92" font-family="Times,serif" font-size="12.00">rt</text>
</g>
<!-- node0&#45;&gt;node2 -->
<g id="edge9" class="edge">
<title>node0&#45;&gt;node2</title>
<path fill="none" stroke="black" stroke-dasharray="1,5" d="M1045.91,-161.89C1053.69,-149.57 1063,-134.84 1070.58,-122.85"/>
<polygon fill="black" stroke="black" points="1073.6,-124.62 1075.98,-114.3 1067.68,-120.88 1073.6,-124.62"/>
</g>
<!-- node3 -->
<g id="node12" class="node">
<title>node3</title>
<polygon fill="none" stroke="black" points="1187.83,-280.32 1187.83,-301.9 1095.38,-317.16 964.62,-317.16 872.17,-301.9 872.17,-280.32 964.62,-265.07 1095.38,-265.07 1187.83,-280.32"/>
<text text-anchor="middle" x="1030" y="-294.51" font-family="Times,serif" font-size="12.00">benchmark_main</text>
<text text-anchor="middle" x="1030" y="-281.51" font-family="Times,serif" font-size="12.00">(benchmark::benchmark_main)</text>
</g>
<!-- node3&#45;&gt;node0 -->
<g id="edge10" class="edge">
<title>node3&#45;&gt;node0</title>
<path fill="none" stroke="black" d="M1030,-264.88C1030,-252.7 1030,-237.88 1030,-224.59"/>
<polygon fill="black" stroke="black" points="1033.5,-224.33 1030,-214.33 1026.5,-224.33 1033.5,-224.33"/>
</g>
<!-- node4 -->
<g id="node13" class="node">
<title>node4</title>
<polygon fill="none" stroke="black" points="1965.79,-177.28 1965.79,-198.86 1917.88,-214.11 1850.12,-214.11 1802.21,-198.86 1802.21,-177.28 1850.12,-162.02 1917.88,-162.02 1965.79,-177.28"/>
<text text-anchor="middle" x="1884" y="-191.47" font-family="Times,serif" font-size="12.00">gmock</text>
<text text-anchor="middle" x="1884" y="-178.47" font-family="Times,serif" font-size="12.00">(GTest::gmock)</text>
</g>
<!-- node4&#45;&gt;node1 -->
<g id="edge11" class="edge">
<title>node4&#45;&gt;node1</title>
<path fill="none" stroke="black" d="M1882.36,-161.89C1881.97,-137.31 1884.73,-99.79 1902,-73 1911.96,-57.55 1928.08,-45.53 1943.4,-36.8"/>
<polygon fill="black" stroke="black" points="1945.12,-39.85 1952.28,-32.04 1941.81,-33.68 1945.12,-39.85"/>
</g>
<!-- node5 -->
<g id="node14" class="node">
<title>node5</title>
<polygon fill="none" stroke="black" points="2057.45,-88.23 2057.45,-109.81 2014.42,-125.07 1953.58,-125.07 1910.55,-109.81 1910.55,-88.23 1953.58,-72.98 2014.42,-72.98 2057.45,-88.23"/>
<text text-anchor="middle" x="1984" y="-102.42" font-family="Times,serif" font-size="12.00">gtest</text>
<text text-anchor="middle" x="1984" y="-89.42" font-family="Times,serif" font-size="12.00">(GTest::gtest)</text>
</g>
<!-- node4&#45;&gt;node5 -->
<g id="edge13" class="edge">
<title>node4&#45;&gt;node5</title>
<path fill="none" stroke="black" d="M1912.92,-161.89C1923.7,-152.51 1936.08,-141.73 1947.46,-131.83"/>
<polygon fill="black" stroke="black" points="1949.9,-134.35 1955.14,-125.14 1945.3,-129.07 1949.9,-134.35"/>
</g>
<!-- node5&#45;&gt;node1 -->
<g id="edge12" class="edge">
<title>node5&#45;&gt;node1</title>
<path fill="none" stroke="black" d="M1984,-72.58C1984,-64.21 1984,-54.86 1984,-46.35"/>
<polygon fill="black" stroke="black" points="1987.5,-46.15 1984,-36.15 1980.5,-46.15 1987.5,-46.15"/>
</g>
<!-- node6 -->
<g id="node15" class="node">
<title>node6</title>
<polygon fill="none" stroke="black" points="2149.39,-280.32 2149.39,-301.9 2085.31,-317.16 1994.69,-317.16 1930.61,-301.9 1930.61,-280.32 1994.69,-265.07 2085.31,-265.07 2149.39,-280.32"/>
<text text-anchor="middle" x="2040" y="-294.51" font-family="Times,serif" font-size="12.00">gmock_main</text>
<text text-anchor="middle" x="2040" y="-281.51" font-family="Times,serif" font-size="12.00">(GTest::gmock_main)</text>
</g>
<!-- node6&#45;&gt;node1 -->
<g id="edge14" class="edge">
<title>node6&#45;&gt;node1</title>
<path fill="none" stroke="black" d="M2115.1,-272.05C2145.36,-260.69 2177.24,-242.58 2195,-214.09 2207.24,-194.46 2204.82,-182.99 2195,-162.04 2163.68,-95.22 2083.63,-54.76 2031.63,-34.67"/>
<polygon fill="black" stroke="black" points="2032.54,-31.27 2021.95,-31.04 2030.08,-37.83 2032.54,-31.27"/>
</g>
<!-- node6&#45;&gt;node4 -->
<g id="edge15" class="edge">
<title>node6&#45;&gt;node4</title>
<path fill="none" stroke="black" d="M2001.04,-264.88C1979.35,-250.83 1952.24,-233.27 1929.57,-218.59"/>
<polygon fill="black" stroke="black" points="1931.42,-215.61 1921.13,-213.11 1927.62,-221.49 1931.42,-215.61"/>
</g>
<!-- node7 -->
<g id="node16" class="node">
<title>node7</title>
<polygon fill="none" stroke="black" points="2186.06,-177.28 2186.06,-198.86 2126.86,-214.11 2043.14,-214.11 1983.94,-198.86 1983.94,-177.28 2043.14,-162.02 2126.86,-162.02 2186.06,-177.28"/>
<text text-anchor="middle" x="2085" y="-191.47" font-family="Times,serif" font-size="12.00">gtest_main</text>
<text text-anchor="middle" x="2085" y="-178.47" font-family="Times,serif" font-size="12.00">(GTest::gtest_main)</text>
</g>
<!-- node7&#45;&gt;node1 -->
<g id="edge16" class="edge">
<title>node7&#45;&gt;node1</title>
<path fill="none" stroke="black" d="M2086.38,-161.87C2086.52,-137.28 2083.41,-99.76 2066,-73 2055.9,-57.47 2039.6,-45.4 2024.18,-36.64"/>
<polygon fill="black" stroke="black" points="2025.73,-33.5 2015.26,-31.87 2022.42,-39.67 2025.73,-33.5"/>
</g>
<!-- node7&#45;&gt;node5 -->
<g id="edge17" class="edge">
<title>node7&#45;&gt;node5</title>
<path fill="none" stroke="black" d="M2055.79,-161.89C2044.9,-152.51 2032.4,-141.73 2020.91,-131.83"/>
<polygon fill="black" stroke="black" points="2023.01,-129.02 2013.15,-125.14 2018.44,-134.32 2023.01,-129.02"/>
</g>
<!-- node8 -->
<g id="node17" class="node">
<title>node8</title>
<polygon fill="none" stroke="black" points="1041.99,-354.18 1049.93,-354.28 1057.79,-354.43 1065.54,-354.63 1073.13,-354.87 1080.56,-355.16 1087.77,-355.5 1094.76,-355.88 1101.48,-356.31 1107.92,-356.78 1114.05,-357.3 1119.85,-357.85 1125.3,-358.44 1130.39,-359.07 1135.1,-359.74 1139.41,-360.44 1143.31,-361.17 1146.81,-361.94 1149.88,-362.73 1152.53,-363.54 1154.76,-364.38 1156.56,-365.24 1157.94,-366.12 1158.9,-367.02 1159.45,-367.93 1159.6,-368.85 1159.36,-369.78 1158.73,-370.72 1157.73,-371.66 1156.38,-372.61 1154.69,-373.55 1152.67,-374.49 1150.34,-375.42 1147.73,-376.34 1144.83,-377.25 1141.68,-378.15 1138.29,-379.03 1134.68,-379.89 1130.87,-380.73 1126.86,-381.54 1122.69,-382.33 1118.36,-383.1 1113.89,-383.83 1109.3,-384.53 1104.59,-385.2 1099.79,-385.83 1094.9,-386.42 1089.93,-386.97 1084.9,-387.49 1079.81,-387.96 1074.68,-388.39 1069.51,-388.77 1064.3,-389.11 1059.06,-389.4 1053.81,-389.64 1048.53,-389.84 1043.25,-389.99 1037.95,-390.09 1032.65,-390.13 1027.35,-390.13 1022.05,-390.09 1016.75,-389.99 1011.47,-389.84 1006.19,-389.64 1000.94,-389.4 995.7,-389.11 990.49,-388.77 985.32,-388.39 980.19,-387.96 975.1,-387.49 970.07,-386.97 965.1,-386.42 960.21,-385.83 955.41,-385.2 950.7,-384.53 946.11,-383.83 941.64,-383.1 937.31,-382.33 933.14,-381.54 929.13,-380.73 925.32,-379.89 921.71,-379.03 918.32,-378.15 915.17,-377.25 912.27,-376.34 909.66,-375.42 907.33,-374.49 905.31,-373.55 903.62,-372.61 902.27,-371.66 901.27,-370.72 900.64,-369.78 900.4,-368.85 900.55,-367.93 901.1,-367.02 902.06,-366.12 903.44,-365.24 905.24,-364.38 907.47,-363.54 910.12,-362.73 913.19,-361.94 916.69,-361.17 920.59,-360.44 924.9,-359.74 929.61,-359.07 934.7,-358.44 940.15,-357.85 945.95,-357.3 952.08,-356.78 958.52,-356.31 965.24,-355.88 972.23,-355.5 979.44,-355.16 986.87,-354.87 994.46,-354.63 1002.21,-354.43 1010.07,-354.28 1018.01,-354.18 1026,-354.13 1034,-354.13 1041.99,-354.18"/>
<text text-anchor="middle" x="1030" y="-369.03" font-family="Times,serif" font-size="12.00">net_utils&#45;bench&#45;DnsCacheImpl</text>
</g>
<!-- node8&#45;&gt;node0 -->
<g id="edge18" class="edge">
<title>node8&#45;&gt;node0</title>
<path fill="none" stroke="black" stroke-dasharray="1,5" d="M927.27,-359.36C902.32,-351.37 878.42,-338.32 863,-317.13 849.39,-298.43 850.48,-284.54 863,-265.09 879.34,-239.7 906.47,-222.69 934.17,-211.33"/>
<polygon fill="black" stroke="black" points="935.5,-214.57 943.57,-207.69 932.98,-208.04 935.5,-214.57"/>
</g>
<!-- node8&#45;&gt;node3 -->
<g id="edge19" class="edge">
<title>node8&#45;&gt;node3</title>
<path fill="none" stroke="black" stroke-dasharray="1,5" d="M1030,-353.99C1030,-346.2 1030,-336.69 1030,-327.49"/>
<polygon fill="black" stroke="black" points="1033.5,-327.33 1030,-317.33 1026.5,-327.33 1033.5,-327.33"/>
</g>
<!-- node9 -->
<g id="node18" class="node">
<title>node9</title>
<polygon fill="none" stroke="black" points="1322.77,-283.66 1322.77,-298.57 1288.34,-309.11 1239.66,-309.11 1205.23,-298.57 1205.23,-283.66 1239.66,-273.11 1288.34,-273.11 1322.77,-283.66"/>
<text text-anchor="middle" x="1264" y="-288.01" font-family="Times,serif" font-size="12.00">net_utils_lib</text>
</g>
<!-- node8&#45;&gt;node9 -->
<g id="edge20" class="edge">
<title>node8&#45;&gt;node9</title>
<path fill="none" stroke="black" stroke-dasharray="1,5" d="M1091.32,-355.64C1112.02,-350 1135.16,-343.25 1156,-336.13 1178.07,-328.6 1202.13,-318.94 1221.94,-310.58"/>
<polygon fill="black" stroke="black" points="1223.46,-313.74 1231.29,-306.6 1220.72,-307.3 1223.46,-313.74"/>
</g>
<!-- node10 -->
<g id="node19" class="node">
<title>node10</title>
<polygon fill="none" stroke="black" points="1316.79,-354.18 1324.59,-354.28 1332.31,-354.43 1339.92,-354.63 1347.39,-354.87 1354.68,-355.16 1361.77,-355.5 1368.64,-355.88 1375.24,-356.31 1381.57,-356.78 1387.59,-357.3 1393.3,-357.85 1398.65,-358.44 1403.65,-359.07 1408.28,-359.74 1412.51,-360.44 1416.35,-361.17 1419.78,-361.94 1422.81,-362.73 1425.41,-363.54 1427.6,-364.38 1429.37,-365.24 1430.72,-366.12 1431.67,-367.02 1432.21,-367.93 1432.36,-368.85 1432.12,-369.78 1431.5,-370.72 1430.52,-371.66 1429.19,-372.61 1427.53,-373.55 1425.55,-374.49 1423.26,-375.42 1420.69,-376.34 1417.84,-377.25 1414.75,-378.15 1411.42,-379.03 1407.87,-379.89 1404.12,-380.73 1400.19,-381.54 1396.08,-382.33 1391.83,-383.1 1387.44,-383.83 1382.92,-384.53 1378.3,-385.2 1373.58,-385.83 1368.77,-386.42 1363.89,-386.97 1358.95,-387.49 1353.95,-387.96 1348.91,-388.39 1343.82,-388.77 1338.7,-389.11 1333.56,-389.4 1328.39,-389.64 1323.21,-389.84 1318.02,-389.99 1312.81,-390.09 1307.61,-390.13 1302.39,-390.13 1297.19,-390.09 1291.98,-389.99 1286.79,-389.84 1281.61,-389.64 1276.44,-389.4 1271.3,-389.11 1266.18,-388.77 1261.09,-388.39 1256.05,-387.96 1251.05,-387.49 1246.11,-386.97 1241.23,-386.42 1236.42,-385.83 1231.7,-385.2 1227.08,-384.53 1222.56,-383.83 1218.17,-383.1 1213.92,-382.33 1209.81,-381.54 1205.88,-380.73 1202.13,-379.89 1198.58,-379.03 1195.25,-378.15 1192.16,-377.25 1189.31,-376.34 1186.74,-375.42 1184.45,-374.49 1182.47,-373.55 1180.81,-372.61 1179.48,-371.66 1178.5,-370.72 1177.88,-369.78 1177.64,-368.85 1177.79,-367.93 1178.33,-367.02 1179.28,-366.12 1180.63,-365.24 1182.4,-364.38 1184.59,-363.54 1187.19,-362.73 1190.22,-361.94 1193.65,-361.17 1197.49,-360.44 1201.72,-359.74 1206.35,-359.07 1211.35,-358.44 1216.7,-357.85 1222.41,-357.3 1228.43,-356.78 1234.76,-356.31 1241.36,-355.88 1248.23,-355.5 1255.32,-355.16 1262.61,-354.87 1270.08,-354.63 1277.69,-354.43 1285.41,-354.28 1293.21,-354.18 1301.07,-354.13 1308.93,-354.13 1316.79,-354.18"/>
<text text-anchor="middle" x="1305" y="-369.03" font-family="Times,serif" font-size="12.00">net_utils&#45;bench&#45;PriorityMutex</text>
</g>
<!-- node10&#45;&gt;node0 -->
<g id="edge21" class="edge">
<title>node10&#45;&gt;node0</title>
<path fill="none" stroke="black" stroke-dasharray="1,5" d="M1317.54,-353.88C1332.32,-331.24 1352.44,-291.31 1332,-265.09 1309.38,-236.07 1225.46,-216.42 1151.8,-204.38"/>
<polygon fill="black" stroke="black" points="1151.91,-200.85 1141.49,-202.73 1150.81,-207.76 1151.91,-200.85"/>
</g>
<!-- node10&#45;&gt;node3 -->
<g id="edge22" class="edge">
<title>node10&#45;&gt;node3</title>
<path fill="none" stroke="black" stroke-dasharray="1,5" d="M1250.01,-355.33C1212.56,-344.57 1162.15,-330.09 1119.03,-317.7"/>
<polygon fill="black" stroke="black" points="1119.96,-314.32 1109.38,-314.92 1118.03,-321.05 1119.96,-314.32"/>
</g>
<!-- node10&#45;&gt;node9 -->
<g id="edge23" class="edge">
<title>node10&#45;&gt;node9</title>
<path fill="none" stroke="black" stroke-dasharray="1,5" d="M1296.1,-353.99C1290.68,-343.53 1283.63,-329.95 1277.53,-318.18"/>
<polygon fill="black" stroke="black" points="1280.59,-316.49 1272.88,-309.23 1274.38,-319.71 1280.59,-316.49"/>
</g>
<!-- node11 -->
<g id="node20" class="node">
<title>node11</title>
<polygon fill="none" stroke="black" points="774.02,-354.18 781.32,-354.28 788.54,-354.43 795.66,-354.63 802.65,-354.87 809.47,-355.16 816.1,-355.5 822.52,-355.88 828.7,-356.31 834.62,-356.78 840.26,-357.3 845.59,-357.85 850.6,-358.44 855.27,-359.07 859.6,-359.74 863.56,-360.44 867.15,-361.17 870.36,-361.94 873.19,-362.73 875.63,-363.54 877.67,-364.38 879.33,-365.24 880.6,-366.12 881.48,-367.02 881.99,-367.93 882.12,-368.85 881.9,-369.78 881.32,-370.72 880.41,-371.66 879.16,-372.61 877.61,-373.55 875.75,-374.49 873.61,-375.42 871.21,-376.34 868.55,-377.25 865.65,-378.15 862.54,-379.03 859.22,-379.89 855.71,-380.73 852.03,-381.54 848.2,-382.33 844.22,-383.1 840.11,-383.83 835.89,-384.53 831.56,-385.2 827.15,-385.83 822.65,-386.42 818.09,-386.97 813.46,-387.49 808.79,-387.96 804.07,-388.39 799.31,-388.77 794.53,-389.11 789.71,-389.4 784.88,-389.64 780.04,-389.84 775.18,-389.99 770.31,-390.09 765.44,-390.13 760.56,-390.13 755.69,-390.09 750.82,-389.99 745.96,-389.84 741.12,-389.64 736.29,-389.4 731.47,-389.11 726.69,-388.77 721.93,-388.39 717.21,-387.96 712.54,-387.49 707.91,-386.97 703.35,-386.42 698.85,-385.83 694.44,-385.2 690.11,-384.53 685.89,-383.83 681.78,-383.1 677.8,-382.33 673.97,-381.54 670.29,-380.73 666.78,-379.89 663.46,-379.03 660.35,-378.15 657.45,-377.25 654.79,-376.34 652.39,-375.42 650.25,-374.49 648.39,-373.55 646.84,-372.61 645.59,-371.66 644.68,-370.72 644.1,-369.78 643.88,-368.85 644.01,-367.93 644.52,-367.02 645.4,-366.12 646.67,-365.24 648.33,-364.38 650.37,-363.54 652.81,-362.73 655.64,-361.94 658.85,-361.17 662.44,-360.44 666.4,-359.74 670.73,-359.07 675.4,-358.44 680.41,-357.85 685.74,-357.3 691.38,-356.78 697.3,-356.31 703.48,-355.88 709.9,-355.5 716.53,-355.16 723.35,-354.87 730.34,-354.63 737.46,-354.43 744.68,-354.28 751.98,-354.18 759.32,-354.13 766.68,-354.13 774.02,-354.18"/>
<text text-anchor="middle" x="763" y="-369.03" font-family="Times,serif" font-size="12.00">net_utils&#45;bench&#45;RcuStorage</text>
</g>
<!-- node11&#45;&gt;node0 -->
<g id="edge24" class="edge">
<title>node11&#45;&gt;node0</title>
<path fill="none" stroke="black" stroke-dasharray="1,5" d="M771.82,-354.15C787.99,-324.7 825.27,-264.23 874,-232.09 888.94,-222.24 906.1,-214.62 923.46,-208.74"/>
<polygon fill="black" stroke="black" points="924.65,-212.04 933.11,-205.65 922.52,-205.37 924.65,-212.04"/>
</g>
<!-- node11&#45;&gt;node3 -->
<g id="edge25" class="edge">
<title>node11&#45;&gt;node3</title>
<path fill="none" stroke="black" stroke-dasharray="1,5" d="M816.07,-355.43C852.19,-344.74 900.83,-330.34 942.61,-317.98"/>
<polygon fill="black" stroke="black" points="943.64,-321.32 952.23,-315.13 941.65,-314.61 943.64,-321.32"/>
</g>
<!-- node11&#45;&gt;node9 -->
<g id="edge26" class="edge">
<title>node11&#45;&gt;node9</title>
<path fill="none" stroke="black" stroke-dasharray="1,5" d="M854.23,-358.89C866.59,-357.27 879.1,-355.64 891,-354.13 1026.9,-336.89 1063.9,-349.55 1197,-317.13 1204.89,-315.21 1213.12,-312.64 1221.01,-309.87"/>
<polygon fill="black" stroke="black" points="1222.22,-313.16 1230.4,-306.43 1219.81,-306.58 1222.22,-313.16"/>
</g>
<!-- node12 -->
<g id="node21" class="node">
<title>node12</title>
<polygon fill="none" stroke="black" points="1562.52,-354.18 1568.82,-354.28 1575.05,-354.43 1581.2,-354.63 1587.23,-354.87 1593.12,-355.16 1598.85,-355.5 1604.39,-355.88 1609.72,-356.31 1614.83,-356.78 1619.7,-357.3 1624.3,-357.85 1628.63,-358.44 1632.67,-359.07 1636.4,-359.74 1639.82,-360.44 1642.92,-361.17 1645.69,-361.94 1648.13,-362.73 1650.24,-363.54 1652,-364.38 1653.43,-365.24 1654.53,-366.12 1655.29,-367.02 1655.73,-367.93 1655.85,-368.85 1655.65,-369.78 1655.15,-370.72 1654.36,-371.66 1653.29,-372.61 1651.95,-373.55 1650.35,-374.49 1648.5,-375.42 1646.42,-376.34 1644.13,-377.25 1641.63,-378.15 1638.94,-379.03 1636.07,-379.89 1633.04,-380.73 1629.87,-381.54 1626.55,-382.33 1623.12,-383.1 1619.57,-383.83 1615.93,-384.53 1612.19,-385.2 1608.38,-385.83 1604.5,-386.42 1600.56,-386.97 1596.57,-387.49 1592.53,-387.96 1588.46,-388.39 1584.35,-388.77 1580.22,-389.11 1576.06,-389.4 1571.89,-389.64 1567.71,-389.84 1563.51,-389.99 1559.31,-390.09 1555.1,-390.13 1550.9,-390.13 1546.69,-390.09 1542.49,-389.99 1538.29,-389.84 1534.11,-389.64 1529.94,-389.4 1525.78,-389.11 1521.65,-388.77 1517.54,-388.39 1513.47,-387.96 1509.43,-387.49 1505.44,-386.97 1501.5,-386.42 1497.62,-385.83 1493.81,-385.2 1490.07,-384.53 1486.43,-383.83 1482.88,-383.1 1479.45,-382.33 1476.13,-381.54 1472.96,-380.73 1469.93,-379.89 1467.06,-379.03 1464.37,-378.15 1461.87,-377.25 1459.58,-376.34 1457.5,-375.42 1455.65,-374.49 1454.05,-373.55 1452.71,-372.61 1451.64,-371.66 1450.85,-370.72 1450.35,-369.78 1450.15,-368.85 1450.27,-367.93 1450.71,-367.02 1451.47,-366.12 1452.57,-365.24 1454,-364.38 1455.76,-363.54 1457.87,-362.73 1460.31,-361.94 1463.08,-361.17 1466.18,-360.44 1469.6,-359.74 1473.33,-359.07 1477.37,-358.44 1481.7,-357.85 1486.3,-357.3 1491.17,-356.78 1496.28,-356.31 1501.61,-355.88 1507.15,-355.5 1512.88,-355.16 1518.77,-354.87 1524.8,-354.63 1530.95,-354.43 1537.18,-354.28 1543.48,-354.18 1549.82,-354.13 1556.18,-354.13 1562.52,-354.18"/>
<text text-anchor="middle" x="1553" y="-369.03" font-family="Times,serif" font-size="12.00">net_utils&#45;test&#45;DnsCache</text>
</g>
<!-- node12&#45;&gt;node4 -->
<g id="edge27" class="edge">
<title>node12&#45;&gt;node4</title>
<path fill="none" stroke="black" stroke-dasharray="1,5" d="M1582.96,-354.66C1639.77,-323.41 1763.7,-255.24 1833.54,-216.82"/>
<polygon fill="black" stroke="black" points="1835.53,-219.72 1842.61,-211.83 1832.16,-213.59 1835.53,-219.72"/>
</g>
<!-- node12&#45;&gt;node6 -->
<g id="edge28" class="edge">
<title>node12&#45;&gt;node6</title>
<path fill="none" stroke="black" stroke-dasharray="1,5" d="M1630.17,-358.61C1714.05,-345 1848.39,-323.2 1940.24,-308.3"/>
<polygon fill="black" stroke="black" points="1941.07,-311.71 1950.38,-306.65 1939.95,-304.8 1941.07,-311.71"/>
</g>
<!-- node12&#45;&gt;node9 -->
<g id="edge29" class="edge">
<title>node12&#45;&gt;node9</title>
<path fill="none" stroke="black" stroke-dasharray="1,5" d="M1497.96,-356.09C1445.76,-341.81 1367.88,-320.52 1316.52,-306.47"/>
<polygon fill="black" stroke="black" points="1317.19,-303.03 1306.62,-303.77 1315.34,-309.78 1317.19,-303.03"/>
</g>
<!-- node13 -->
<g id="node22" class="node">
<title>node13</title>
<polygon fill="none" stroke="black" points="2051.96,-354.18 2059.89,-354.28 2067.72,-354.43 2075.45,-354.63 2083.03,-354.87 2090.44,-355.16 2097.63,-355.5 2104.6,-355.88 2111.31,-356.31 2117.73,-356.78 2123.85,-357.3 2129.64,-357.85 2135.08,-358.44 2140.15,-359.07 2144.84,-359.74 2149.14,-360.44 2153.04,-361.17 2156.53,-361.94 2159.59,-362.73 2162.24,-363.54 2164.46,-364.38 2166.26,-365.24 2167.63,-366.12 2168.59,-367.02 2169.14,-367.93 2169.29,-368.85 2169.05,-369.78 2168.42,-370.72 2167.43,-371.66 2166.08,-372.61 2164.39,-373.55 2162.38,-374.49 2160.06,-375.42 2157.44,-376.34 2154.56,-377.25 2151.41,-378.15 2148.03,-379.03 2144.43,-379.89 2140.62,-380.73 2136.63,-381.54 2132.47,-382.33 2128.15,-383.1 2123.69,-383.83 2119.11,-384.53 2114.41,-385.2 2109.62,-385.83 2104.74,-386.42 2099.79,-386.97 2094.77,-387.49 2089.69,-387.96 2084.57,-388.39 2079.41,-388.77 2074.22,-389.11 2068.99,-389.4 2063.75,-389.64 2058.49,-389.84 2053.22,-389.99 2047.93,-390.09 2042.64,-390.13 2037.36,-390.13 2032.07,-390.09 2026.78,-389.99 2021.51,-389.84 2016.25,-389.64 2011.01,-389.4 2005.78,-389.11 2000.59,-388.77 1995.43,-388.39 1990.31,-387.96 1985.23,-387.49 1980.21,-386.97 1975.26,-386.42 1970.38,-385.83 1965.59,-385.2 1960.89,-384.53 1956.31,-383.83 1951.85,-383.1 1947.53,-382.33 1943.37,-381.54 1939.38,-380.73 1935.57,-379.89 1931.97,-379.03 1928.59,-378.15 1925.44,-377.25 1922.56,-376.34 1919.94,-375.42 1917.62,-374.49 1915.61,-373.55 1913.92,-372.61 1912.57,-371.66 1911.58,-370.72 1910.95,-369.78 1910.71,-368.85 1910.86,-367.93 1911.41,-367.02 1912.37,-366.12 1913.74,-365.24 1915.54,-364.38 1917.76,-363.54 1920.41,-362.73 1923.47,-361.94 1926.96,-361.17 1930.86,-360.44 1935.16,-359.74 1939.85,-359.07 1944.92,-358.44 1950.36,-357.85 1956.15,-357.3 1962.27,-356.78 1968.69,-356.31 1975.4,-355.88 1982.37,-355.5 1989.56,-355.16 1996.97,-354.87 2004.55,-354.63 2012.28,-354.43 2020.11,-354.28 2028.04,-354.18 2036.01,-354.13 2043.99,-354.13 2051.96,-354.18"/>
<text text-anchor="middle" x="2040" y="-369.03" font-family="Times,serif" font-size="12.00">net_utils&#45;test&#45;IterativeAverage</text>
</g>
<!-- node13&#45;&gt;node4 -->
<g id="edge30" class="edge">
<title>node13&#45;&gt;node4</title>
<path fill="none" stroke="black" stroke-dasharray="1,5" d="M1981.15,-355.46C1959.93,-347.17 1937.44,-334.91 1922,-317.13 1899.48,-291.2 1890.3,-252.42 1886.56,-224.33"/>
<polygon fill="black" stroke="black" points="1890.01,-223.67 1885.38,-214.14 1883.05,-224.47 1890.01,-223.67"/>
</g>
<!-- node13&#45;&gt;node6 -->
<g id="edge31" class="edge">
<title>node13&#45;&gt;node6</title>
<path fill="none" stroke="black" stroke-dasharray="1,5" d="M2040,-353.99C2040,-346.2 2040,-336.69 2040,-327.49"/>
<polygon fill="black" stroke="black" points="2043.5,-327.33 2040,-317.33 2036.5,-327.33 2043.5,-327.33"/>
</g>
<!-- node14 -->
<g id="node23" class="node">
<title>node14</title>
<polygon fill="none" stroke="black" points="2560.05,-354.18 2566.71,-354.28 2573.3,-354.43 2579.79,-354.63 2586.16,-354.87 2592.38,-355.16 2598.43,-355.5 2604.29,-355.88 2609.92,-356.31 2615.32,-356.78 2620.46,-357.3 2625.32,-357.85 2629.89,-358.44 2634.16,-359.07 2638.1,-359.74 2641.72,-360.44 2644.99,-361.17 2647.92,-361.94 2650.5,-362.73 2652.72,-363.54 2654.59,-364.38 2656.1,-365.24 2657.25,-366.12 2658.06,-367.02 2658.52,-367.93 2658.65,-368.85 2658.44,-369.78 2657.92,-370.72 2657.08,-371.66 2655.95,-372.61 2654.53,-373.55 2652.84,-374.49 2650.89,-375.42 2648.69,-376.34 2646.26,-377.25 2643.62,-378.15 2640.78,-379.03 2637.76,-379.89 2634.56,-380.73 2631.2,-381.54 2627.7,-382.33 2624.07,-383.1 2620.33,-383.83 2616.48,-384.53 2612.53,-385.2 2608.5,-385.83 2604.4,-386.42 2600.24,-386.97 2596.02,-387.49 2591.76,-387.96 2587.46,-388.39 2583.12,-388.77 2578.75,-389.11 2574.36,-389.4 2569.96,-389.64 2565.54,-389.84 2561.1,-389.99 2556.67,-390.09 2552.22,-390.13 2547.78,-390.13 2543.33,-390.09 2538.9,-389.99 2534.46,-389.84 2530.04,-389.64 2525.64,-389.4 2521.25,-389.11 2516.88,-388.77 2512.54,-388.39 2508.24,-387.96 2503.98,-387.49 2499.76,-386.97 2495.6,-386.42 2491.5,-385.83 2487.47,-385.2 2483.52,-384.53 2479.67,-383.83 2475.93,-383.1 2472.3,-382.33 2468.8,-381.54 2465.44,-380.73 2462.24,-379.89 2459.22,-379.03 2456.38,-378.15 2453.74,-377.25 2451.31,-376.34 2449.11,-375.42 2447.16,-374.49 2445.47,-373.55 2444.05,-372.61 2442.92,-371.66 2442.08,-370.72 2441.56,-369.78 2441.35,-368.85 2441.48,-367.93 2441.94,-367.02 2442.75,-366.12 2443.9,-365.24 2445.41,-364.38 2447.28,-363.54 2449.5,-362.73 2452.08,-361.94 2455.01,-361.17 2458.28,-360.44 2461.9,-359.74 2465.84,-359.07 2470.11,-358.44 2474.68,-357.85 2479.54,-357.3 2484.68,-356.78 2490.08,-356.31 2495.71,-355.88 2501.57,-355.5 2507.62,-355.16 2513.84,-354.87 2520.21,-354.63 2526.7,-354.43 2533.29,-354.28 2539.95,-354.18 2546.64,-354.13 2553.36,-354.13 2560.05,-354.18"/>
<text text-anchor="middle" x="2550" y="-369.03" font-family="Times,serif" font-size="12.00">net_utils&#45;test&#45;LruStorage</text>
</g>
<!-- node14&#45;&gt;node4 -->
<g id="edge32" class="edge">
<title>node14&#45;&gt;node4</title>
<path fill="none" stroke="black" stroke-dasharray="1,5" d="M2505.35,-355.26C2422.68,-326.46 2239.73,-265.51 2081,-232.09 2034.24,-222.25 2021.65,-224.44 1975,-214.09 1967.77,-212.49 1960.26,-210.67 1952.79,-208.76"/>
<polygon fill="black" stroke="black" points="1953.58,-205.35 1943.02,-206.22 1951.81,-212.13 1953.58,-205.35"/>
</g>
<!-- node14&#45;&gt;node6 -->
<g id="edge33" class="edge">
<title>node14&#45;&gt;node6</title>
<path fill="none" stroke="black" stroke-dasharray="1,5" d="M2468.91,-358.57C2380.15,-344.82 2237.69,-322.74 2141.56,-307.85"/>
<polygon fill="black" stroke="black" points="2141.95,-304.37 2131.53,-306.29 2140.88,-311.28 2141.95,-304.37"/>
</g>
<!-- node15 -->
<g id="node24" class="node">
<title>node15</title>
<polygon fill="none" stroke="black" points="2315.92,-354.18 2323.15,-354.28 2330.3,-354.43 2337.35,-354.63 2344.27,-354.87 2351.03,-355.16 2357.6,-355.5 2363.96,-355.88 2370.08,-356.31 2375.95,-356.78 2381.53,-357.3 2386.81,-357.85 2391.77,-358.44 2396.4,-359.07 2400.69,-359.74 2404.61,-360.44 2408.17,-361.17 2411.35,-361.94 2414.15,-362.73 2416.56,-363.54 2418.59,-364.38 2420.23,-365.24 2421.49,-366.12 2422.37,-367.02 2422.87,-367.93 2423,-368.85 2422.78,-369.78 2422.21,-370.72 2421.3,-371.66 2420.07,-372.61 2418.53,-373.55 2416.69,-374.49 2414.57,-375.42 2412.19,-376.34 2409.55,-377.25 2406.69,-378.15 2403.6,-379.03 2400.31,-379.89 2396.84,-380.73 2393.19,-381.54 2389.39,-382.33 2385.45,-383.1 2381.38,-383.83 2377.2,-384.53 2372.92,-385.2 2368.54,-385.83 2364.09,-386.42 2359.57,-386.97 2354.99,-387.49 2350.36,-387.96 2345.68,-388.39 2340.97,-388.77 2336.23,-389.11 2331.46,-389.4 2326.68,-389.64 2321.87,-389.84 2317.06,-389.99 2312.24,-390.09 2307.41,-390.13 2302.59,-390.13 2297.76,-390.09 2292.94,-389.99 2288.13,-389.84 2283.32,-389.64 2278.54,-389.4 2273.77,-389.11 2269.03,-388.77 2264.32,-388.39 2259.64,-387.96 2255.01,-387.49 2250.43,-386.97 2245.91,-386.42 2241.46,-385.83 2237.08,-385.2 2232.8,-384.53 2228.62,-383.83 2224.55,-383.1 2220.61,-382.33 2216.81,-381.54 2213.16,-380.73 2209.69,-379.89 2206.4,-379.03 2203.31,-378.15 2200.45,-377.25 2197.81,-376.34 2195.43,-375.42 2193.31,-374.49 2191.47,-373.55 2189.93,-372.61 2188.7,-371.66 2187.79,-370.72 2187.22,-369.78 2187,-368.85 2187.13,-367.93 2187.63,-367.02 2188.51,-366.12 2189.77,-365.24 2191.41,-364.38 2193.44,-363.54 2195.85,-362.73 2198.65,-361.94 2201.83,-361.17 2205.39,-360.44 2209.31,-359.74 2213.6,-359.07 2218.23,-358.44 2223.19,-357.85 2228.47,-357.3 2234.05,-356.78 2239.92,-356.31 2246.04,-355.88 2252.4,-355.5 2258.97,-355.16 2265.73,-354.87 2272.65,-354.63 2279.7,-354.43 2286.85,-354.28 2294.08,-354.18 2301.36,-354.13 2308.64,-354.13 2315.92,-354.18"/>
<text text-anchor="middle" x="2305" y="-369.03" font-family="Times,serif" font-size="12.00">net_utils&#45;test&#45;PriorityMutex</text>
</g>
<!-- node15&#45;&gt;node4 -->
<g id="edge34" class="edge">
<title>node15&#45;&gt;node4</title>
<path fill="none" stroke="black" stroke-dasharray="1,5" d="M2285.99,-353.96C2259.26,-330.67 2208.21,-289.21 2158,-265.09 2155.63,-263.95 2034.93,-230.62 1954.54,-208.48"/>
<polygon fill="black" stroke="black" points="1955.03,-204.98 1944.46,-205.7 1953.17,-211.73 1955.03,-204.98"/>
</g>
<!-- node15&#45;&gt;node6 -->
<g id="edge35" class="edge">
<title>node15&#45;&gt;node6</title>
<path fill="none" stroke="black" stroke-dasharray="1,5" d="M2243.38,-355.99C2220.55,-350.12 2194.5,-343.14 2171,-336.13 2151.33,-330.27 2130.18,-323.41 2110.73,-316.87"/>
<polygon fill="black" stroke="black" points="2111.63,-313.48 2101.04,-313.59 2109.39,-320.11 2111.63,-313.48"/>
</g>
<!-- node16 -->
<g id="node25" class="node">
<title>node16</title>
<polygon fill="none" stroke="black" points="1793.13,-354.18 1799.83,-354.28 1806.47,-354.43 1813.01,-354.63 1819.43,-354.87 1825.7,-355.16 1831.79,-355.5 1837.69,-355.88 1843.37,-356.31 1848.81,-356.78 1853.99,-357.3 1858.89,-357.85 1863.49,-358.44 1867.79,-359.07 1871.76,-359.74 1875.4,-360.44 1878.7,-361.17 1881.65,-361.94 1884.25,-362.73 1886.49,-363.54 1888.37,-364.38 1889.89,-365.24 1891.05,-366.12 1891.87,-367.02 1892.33,-367.93 1892.46,-368.85 1892.25,-369.78 1891.72,-370.72 1890.88,-371.66 1889.74,-372.61 1888.31,-373.55 1886.6,-374.49 1884.64,-375.42 1882.43,-376.34 1879.98,-377.25 1877.32,-378.15 1874.46,-379.03 1871.41,-379.89 1868.19,-380.73 1864.81,-381.54 1861.28,-382.33 1857.63,-383.1 1853.85,-383.83 1849.97,-384.53 1846,-385.2 1841.94,-385.83 1837.81,-386.42 1833.62,-386.97 1829.37,-387.49 1825.07,-387.96 1820.74,-388.39 1816.37,-388.77 1811.97,-389.11 1807.55,-389.4 1803.11,-389.64 1798.65,-389.84 1794.19,-389.99 1789.72,-390.09 1785.24,-390.13 1780.76,-390.13 1776.28,-390.09 1771.81,-389.99 1767.35,-389.84 1762.89,-389.64 1758.45,-389.4 1754.03,-389.11 1749.63,-388.77 1745.26,-388.39 1740.93,-387.96 1736.63,-387.49 1732.38,-386.97 1728.19,-386.42 1724.06,-385.83 1720,-385.2 1716.03,-384.53 1712.15,-383.83 1708.37,-383.1 1704.72,-382.33 1701.19,-381.54 1697.81,-380.73 1694.59,-379.89 1691.54,-379.03 1688.68,-378.15 1686.02,-377.25 1683.57,-376.34 1681.36,-375.42 1679.4,-374.49 1677.69,-373.55 1676.26,-372.61 1675.12,-371.66 1674.28,-370.72 1673.75,-369.78 1673.54,-368.85 1673.67,-367.93 1674.13,-367.02 1674.95,-366.12 1676.11,-365.24 1677.63,-364.38 1679.51,-363.54 1681.75,-362.73 1684.35,-361.94 1687.3,-361.17 1690.6,-360.44 1694.24,-359.74 1698.21,-359.07 1702.51,-358.44 1707.11,-357.85 1712.01,-357.3 1717.19,-356.78 1722.63,-356.31 1728.31,-355.88 1734.21,-355.5 1740.3,-355.16 1746.57,-354.87 1752.99,-354.63 1759.53,-354.43 1766.17,-354.28 1772.87,-354.18 1779.62,-354.13 1786.38,-354.13 1793.13,-354.18"/>
<text text-anchor="middle" x="1783" y="-369.03" font-family="Times,serif" font-size="12.00">net_utils&#45;test&#45;RcuStorage</text>
</g>
<!-- node16&#45;&gt;node4 -->
<g id="edge36" class="edge">
<title>node16&#45;&gt;node4</title>
<path fill="none" stroke="black" stroke-dasharray="1,5" d="M1792.5,-354.01C1809.05,-324.18 1843.45,-262.16 1865.04,-223.25"/>
<polygon fill="black" stroke="black" points="1868.17,-224.81 1869.96,-214.37 1862.05,-221.41 1868.17,-224.81"/>
</g>
<!-- node16&#45;&gt;node6 -->
<g id="edge37" class="edge">
<title>node16&#45;&gt;node6</title>
<path fill="none" stroke="black" stroke-dasharray="1,5" d="M1833.77,-355.52C1871.1,-344.05 1922.43,-328.26 1964.54,-315.31"/>
<polygon fill="black" stroke="black" points="1965.67,-318.63 1974.2,-312.34 1963.62,-311.94 1965.67,-318.63"/>
</g>
</g>
</svg>
